<svg xmlns="http://www.w3.org/2000/svg" width="800" height="600"><style></style><rect class="boundary" x="0" y="0" fill="#000" width="800" height="600"/><rect class="pcb-boundary" fill="none" stroke="#fff" stroke-width="0.3" x="297.4834437086093" y="158.9403973509934" width="205.03311258278143" height="282.11920529801324"/><rect class="pcb-pad" fill="rgb(200, 52, 52)" x="245.82781456953643" y="248.34437086092714" width="103.3112582781457" height="63.576158940397356" data-layer="top"/><rect class="pcb-pad" fill="rgb(200, 52, 52)" x="245.82781456953643" y="351.65562913907286" width="103.3112582781457" height="63.576158940397356" data-layer="top"/><rect class="pcb-pad" fill="rgb(200, 52, 52)" x="450.86092715231786" y="351.65562913907286" width="103.3112582781457" height="63.576158940397356" data-layer="top"/><rect class="pcb-pad" fill="rgb(200, 52, 52)" x="450.86092715231786" y="248.34437086092714" width="103.3112582781457" height="63.576158940397356" data-layer="top"/><path class="pcb-silkscreen pcb-silkscreen-top" d="M 365.0331125827815 441.05960264900665 L 365.0331125827815 222.5165562913907 L 388.34437086092714 222.5165562913907 L 389.2316027998684 226.9769724567057 L 391.75822559676607 230.75833069462468 L 395.53958383468506 233.2849534915223 L 400 234.17218543046357 L 404.46041616531494 233.2849534915223 L 408.24177440323393 230.75833069462465 L 410.7683972001316 226.9769724567057 L 411.65562913907286 222.5165562913907 L 434.9668874172185 222.5165562913907 L 434.9668874172185 441.05960264900665 L 365.0331125827815 441.05960264900665 Z" fill="none" stroke="#f2eda1" stroke-width="15.894039735099339" stroke-linecap="round" stroke-linejoin="round" data-pcb-component-id="" data-pcb-silkscreen-path-id="silkscreen_path_1"/><text x="0" y="0" dx="0" dy="0" fill="#f2eda1" font-family="Arial, sans-serif" font-size="18.211920529801326" text-anchor="middle" dominant-baseline="central" transform="matrix(1,0,0,1,400,158.9403973509934)" class="pcb-silkscreen-text pcb-silkscreen-top" data-pcb-silkscreen-text-id="pcb_component_1" stroke="none">{REF}</text></svg>